<?xml version="1.0" standalone="no"?><!DOCTYPE svg PUBLIC "-//W3C//DTD SVG 1.1//EN" "http://www.w3.org/Graphics/SVG/1.1/DTD/svg11.dtd"><svg class="icon" width="200px" height="200.00px" viewBox="0 0 1024 1024" version="1.1" xmlns="http://www.w3.org/2000/svg"><path fill="#333333" d="M857.6 812.8h-188.8l-112 112c-25.6 25.6-67.2 25.6-92.8 0L352 812.8H166.4c-73.6 0-134.4-60.8-134.4-134.4V214.4c0-73.6 60.8-134.4 134.4-134.4h691.2c73.6 0 134.4 60.8 134.4 134.4v467.2c0 70.4-60.8 131.2-134.4 131.2z m-380.8-112c6.4 6.4 16 12.8 28.8 12.8 9.6 0 22.4-3.2 28.8-12.8 6.4-6.4 12.8-16 12.8-28.8s-3.2-22.4-12.8-28.8c-9.6-9.6-19.2-12.8-28.8-12.8-12.8 0-22.4 3.2-28.8 12.8-9.6 6.4-12.8 16-12.8 28.8 3.2 9.6 6.4 19.2 12.8 28.8z m144-448c-25.6-25.6-60.8-35.2-105.6-35.2-48 0-86.4 16-115.2 44.8-25.6 28.8-41.6 67.2-41.6 115.2H416c0-32 6.4-57.6 22.4-76.8 16-22.4 41.6-32 76.8-32 28.8 0 51.2 6.4 67.2 22.4 16 16 22.4 35.2 22.4 64 0 19.2-6.4 35.2-19.2 54.4-6.4 9.6-16 16-22.4 25.6-35.2 32-60.8 57.6-67.2 80-12.8 9.6-16 28.8-16 51.2v16h54.4v-16c0-19.2 3.2-35.2 12.8-51.2 6.4-12.8 16-25.6 32-35.2 28.8-25.6 48-44.8 54.4-51.2 16-22.4 25.6-48 25.6-80 0-41.6-12.8-73.6-38.4-96z" /></svg>