<?xml version="1.0" standalone="no"?><!DOCTYPE svg PUBLIC "-//W3C//DTD SVG 1.1//EN" "http://www.w3.org/Graphics/SVG/1.1/DTD/svg11.dtd"><svg class="icon" width="200px" height="200.00px" viewBox="0 0 1024 1024" version="1.1" xmlns="http://www.w3.org/2000/svg"><path fill="#1296db" d="M736 883.2c70.4 0 108.8-19.2 128-57.6V403.2h38.4c25.6 0 38.4-12.8 38.4-38.4V192c0-6.4-6.4-19.2-12.8-25.6-6.4-6.4-19.2-12.8-32-12.8h-166.4c6.4 345.6 6.4 588.8 6.4 729.6z m-76.8 25.6c12.8 0 19.2-6.4 32-12.8 6.4-6.4 12.8-12.8 12.8-25.6V153.6c0-19.2-19.2-38.4-38.4-38.4H121.6c-12.8 0-25.6 6.4-32 12.8-6.4 6.4-12.8 19.2-12.8 25.6v716.8c0 19.2 19.2 38.4 38.4 38.4h544z"  /></svg>