<?xml version="1.0" standalone="no"?><!DOCTYPE svg PUBLIC "-//W3C//DTD SVG 1.1//EN" "http://www.w3.org/Graphics/SVG/1.1/DTD/svg11.dtd"><svg class="icon" width="200px" height="200.00px" viewBox="0 0 1024 1024" version="1.1" xmlns="http://www.w3.org/2000/svg"><path fill="#333333" d="M978.673164 928.708703c0 13.074783-3.592828 25.194822-9.366322 35.933397-0.154519 0.675382-0.232291 1.38965-0.38681 2.047636l-0.733711 0c-13.113669 22.635533-37.256532 38.048571-65.22349 38.048571-2.799766 0-5.350868 0.211824-8.073886-0.097214-3.554966 0.696872-7.204076 0.097214-10.970866 0.097214L203.214796 1004.738307c-3.765767 0-7.416923 0.599657-10.969842-0.097214-2.723018 0.309038-5.273097 0.097214-8.073886 0.097214-27.966958 0-52.108798-15.413038-65.22349-38.048571l-0.733711 0c-0.154519-0.657986-0.232291-1.390673-0.385786-2.047636-5.77554-10.738575-9.367345-22.858614-9.367345-35.933397 0-5.436826-1.447978-10.720156-0.366344-15.8285-0.733711-8.990768 0.366344-17.923208 0.366344-27.116591 0-189.94405 150.533458-343.915817 336.218508-343.915817l197.775412 0c185.68505 0 336.219531 153.971767 336.219531 343.915817 0 9.193383 1.100054 18.125823 0.347924 27.116591C980.101699 917.988548 978.673164 923.270854 978.673164 928.708703zM543.567461 521.413394c-136.530536 0-247.219521-113.179712-247.219521-252.78119 0-139.611711 110.688985-252.782214 247.219521-252.782214s247.219521 113.170502 247.219521 252.782214C790.785959 408.233682 680.096974 521.413394 543.567461 521.413394z" /></svg>