<?xml version="1.0" standalone="no"?><!DOCTYPE svg PUBLIC "-//W3C//DTD SVG 1.1//EN" "http://www.w3.org/Graphics/SVG/1.1/DTD/svg11.dtd"><svg class="icon" width="200px" height="200.00px" viewBox="0 0 1024 1024" version="1.1" xmlns="http://www.w3.org/2000/svg"><path fill="#333333" d="M943.234 380.613l-192.895-27.646c-44.153-6.333-96.426-43.78-116.156-83.223l-86.292-172.469c-19.744-39.444-52.036-39.444-71.783 0l-86.292 172.469c-19.731 39.444-72.019 76.891-116.156 83.223l-192.895 27.646c-44.153 6.333-54.135 36.643-22.202 67.355l139.607 134.219c31.934 30.714 51.901 91.302 44.359 134.661l-32.96 189.563c-7.539 43.347 18.606 62.076 58.093 41.585l172.543-89.457c39.488-20.494 104.103-20.494 143.593 0l172.543 89.457c39.488 20.494 65.633 1.764 58.093-41.585l-32.96-189.563c-7.539-43.361 12.423-103.951 44.359-134.661l139.607-134.219c31.934-30.714 21.937-61.023-22.202-67.355z" /></svg>