<?xml version="1.0" standalone="no"?><!DOCTYPE svg PUBLIC "-//W3C//DTD SVG 1.1//EN" "http://www.w3.org/Graphics/SVG/1.1/DTD/svg11.dtd"><svg t="1508080907058" class="icon" style="" viewBox="0 0 1024 1024" version="1.1" xmlns="http://www.w3.org/2000/svg" p-id="3270" xmlns:xlink="http://www.w3.org/1999/xlink" width="200" height="200"><defs><style type="text/css"></style></defs><path d="M647.424 618.56H310.528c-4.352 0-6.528 3.328-6.528 9.856v107.712c0 7.424 2.176 11.2 6.528 11.2h336.896c4.864 0 7.232-3.776 7.232-11.2V628.48a12.16 12.16 0 0 0-1.92-6.912 6.016 6.016 0 0 0-5.312-2.944" fill="#666666" p-id="3271"></path><path d="M789.312 278.336c-4.352 3.52-11.136 5.248-20.352 5.248h-101.76l5.888 21.696c1.728 6.592 3.456 13.568 5.248 20.992 3.072 13.184 3.392 22.4 0.96 27.584-2.368 5.248-8 8.96-16.704 11.2-10.112 2.176-17.28 1.536-21.376-1.92-4.16-3.584-7.552-12.288-10.24-26.304-2.112-9.6-4.096-18.176-5.824-25.6a381.76 381.76 0 0 0-7.936-27.648H543.68a379.52 379.52 0 0 1-13.44 17.728c-4.608 5.76-9.344 11.392-14.08 17.088a130.112 130.112 0 0 0-5.632 5.952l-4.928 5.248c1.728 0.832 3.392 1.92 4.928 3.264l4.928 3.968a935.68 935.68 0 0 0 112.96 80.448c20.544 12.48 41.472 23.872 62.72 34.112 21.248 10.304 41.92 18.752 62.08 25.28 15.296 5.248 24.96 10.56 28.864 15.808 3.968 5.248 4.16 12.672 0.64 22.336-3.456 10.048-9.088 15.488-16.704 16.384-7.68 0.896-19.392-1.536-35.2-7.232a556.672 556.672 0 0 1-62.336-26.88c-21.888-10.944-43.52-22.912-64.64-35.84a897.728 897.728 0 0 1-110.08-78.464c-7.872-6.144-13.76-9.088-17.728-8.896-3.904 0.256-8.96 2.752-15.104 7.552-22.336 18.432-43.136 34.56-62.4 48.64-19.264 14.016-37.952 26.56-56.128 37.76-18.176 11.136-36.48 21.12-54.848 29.888-18.368 8.768-37.888 17.088-58.432 24.96-19.264 7.424-32.512 10.624-39.744 9.472-7.232-1.024-12.608-6.4-16.128-16.064-2.176-8.32-0.96-15.36 3.648-20.992 4.608-5.76 14.976-11.392 31.168-17.088 21.888-7.872 43.776-17.28 65.664-28.224A792.512 792.512 0 0 0 393.6 375.808c17.728-13.312 33.6-26.368 47.616-39.04 7.424-6.592 15.104-11.392 23.04-14.464a18.944 18.944 0 0 1 0.96-16.448 117.76 117.76 0 0 1 15.424-21.632l16.448-19.072c4.8-5.696 9.28-11.264 13.44-16.768 4.16-5.44 8.192-11.52 12.16-18.048 3.904-6.528 8.32-14.464 13.12-23.68 6.144-11.328 12.352-18.24 18.688-20.672 6.4-2.368 13.248-1.856 20.736 1.664 8.32 4.416 12.672 9.728 13.12 16.128 0.448 6.336-2.432 14.72-8.512 25.28a35.456 35.456 0 0 0-2.304 3.904 12.352 12.352 0 0 1-2.304 3.264h193.728c9.216 0 16 1.6 20.352 4.608 4.352 3.072 6.592 9.472 6.592 19.072 0 8.768-2.24 14.912-6.592 18.368zM309.248 506.24c0-16.192 9.152-24.32 27.52-24.32h285.76c20.096 0 30.208 8.128 30.208 24.32 0 15.36-10.112 23.04-30.208 23.04H336.832c-18.432 0-27.584-7.68-27.584-23.04z m395.328 232.512c0 18.816-3.52 32.832-10.496 42.048-7.04 9.152-20.8 13.76-41.344 13.76H307.2c-20.608 0-34.56-4.608-42.048-13.76-7.424-9.216-11.136-23.232-11.136-42.048V627.776c0-18.816 3.712-32.768 11.136-41.728 7.424-8.96 21.44-13.44 42.048-13.44h345.472c20.544 0 34.368 4.224 41.344 12.8 7.04 8.512 10.496 22.656 10.496 42.368v110.976zM167.36 347.008c0.448-6.784 5.696-15.232 15.744-25.28 14.08-14.08 26.944-30.592 38.784-49.6 11.776-19.072 23.424-41.728 34.816-67.968 4.8-11.84 10.048-19.392 15.744-22.656 5.696-3.328 12.224-3.392 19.712-0.384 8.768 3.52 14.016 8.256 15.744 14.144 1.728 5.952 0.256 14.08-4.608 24.64-1.28 3.072-2.56 5.888-3.584 8.512a130.432 130.432 0 0 1-3.648 7.872h161.6c18.368 0 27.52 7.936 27.52 23.68s-9.152 23.68-27.52 23.68H382.72c1.728 6.08 3.392 12.544 4.928 19.328 1.536 6.784 2.944 13.696 4.288 20.672 2.56 14.08 2.688 23.808 0.32 29.248-2.432 5.504-7.552 9.536-15.424 12.16-10.112 3.072-17.664 2.304-22.656-2.304-5.12-4.608-8.704-14.528-10.88-29.888a624.32 624.32 0 0 0-11.136-49.28h-60.416a425.28 425.28 0 0 1-48.64 68.992c-10.496 11.84-19.2 18.688-26.24 20.672-7.04 1.92-14.08-0.32-21.056-6.912-6.08-6.08-8.96-12.544-8.512-19.328z m710.016 413.248a476.672 476.672 0 0 0 85.824-273.536c0-265.6-216-481.6-481.6-481.6S0 221.184 0 486.784c0 265.472 216.064 481.536 481.6 481.6 77.44 0 153.984-18.944 222.592-54.784l177.408 53.248a35.648 35.648 0 1 0 44.416-44.416l-48.64-162.176z" fill="#666666" p-id="3272"></path></svg>