<?xml version="1.0" standalone="no"?><!DOCTYPE svg PUBLIC "-//W3C//DTD SVG 1.1//EN" "http://www.w3.org/Graphics/SVG/1.1/DTD/svg11.dtd"><svg t="1508081013296" class="icon" style="" viewBox="0 0 1024 1024" version="1.1" xmlns="http://www.w3.org/2000/svg" p-id="3946" xmlns:xlink="http://www.w3.org/1999/xlink" width="200" height="200"><defs><style type="text/css"></style></defs><path d="M811.52 301.568L625.3312 153.6l-0.8192 1.0752V153.6H239.872a9.4976 9.4976 0 0 0-9.472 9.5488V842.24c0 5.2736 4.2496 9.5488 9.472 9.5488h236.672v-0.6144h326.6304c5.2224 0 9.472-4.2752 9.472-9.5488V301.568H811.52zM624.512 189.44l141.1584 112.1792h-141.1584V189.4144z m-277.632 138.752h174.6688v38.7584h-174.6688v-38.784z m0 96.9472h349.3376v38.784H346.8544v-38.784z m0 96.9728h349.3376v38.784H346.8544v-38.784z m0 96.9728h349.3376v77.568H346.8544v-77.568z" fill="#1296db" p-id="3947"></path></svg>