<?xml version="1.0" standalone="no"?><!DOCTYPE svg PUBLIC "-//W3C//DTD SVG 1.1//EN" "http://www.w3.org/Graphics/SVG/1.1/DTD/svg11.dtd"><svg class="icon" width="200px" height="200.00px" viewBox="0 0 1024 1024" version="1.1" xmlns="http://www.w3.org/2000/svg"><path fill="#1296db" d="M512 0a512 512 0 1 0 0 1024A512 512 0 0 0 512 0z m175.808 706.048l-17.088 17.92a23.296 23.296 0 0 1-34.112 0L480.192 559.232c-5.376-5.696-4.736-17.088-4.736-28.352V208.256c0-14.08 10.816-25.408 24.128-25.408h24.128c13.312 0 24.128 11.392 24.128 25.408v314.432l139.968 147.392a26.368 26.368 0 0 1 0 35.968z"  /></svg>