<?xml version="1.0" standalone="no"?><!DOCTYPE svg PUBLIC "-//W3C//DTD SVG 1.1//EN" "http://www.w3.org/Graphics/SVG/1.1/DTD/svg11.dtd"><svg t="1508074830624" class="icon" style="" viewBox="0 0 1024 1024" version="1.1" xmlns="http://www.w3.org/2000/svg" p-id="9217" xmlns:xlink="http://www.w3.org/1999/xlink" width="200" height="200"><defs><style type="text/css"></style></defs><path d="M735.617987 399.782196c-30.883381 0-55.948243 25.064862-55.948243 55.948243 0 30.883381 25.064862 55.948243 55.948243 55.948243 30.883381 0 55.948243-25.064862 55.948243-55.948243C791.567253 424.848081 766.502391 399.782196 735.617987 399.782196L735.617987 399.782196 735.617987 399.782196zM511.823991 791.423991c-32.674167 0-64.228837-3.804652-94.553493-10.266831l-131.703601 79.167061 1.762133-129.773645c-100.95939-60.70457-167.146834-161.076582-167.146834-274.820136 0-185.386244 175.343517-335.692528 391.640772-335.692528s391.640772 150.306284 391.640772 335.692528C903.464763 641.145335 728.121246 791.423991 511.823991 791.423991L511.823991 791.423991 511.823991 791.423991zM511.823991 64.089667c-247.181659 0-447.590038 175.371146-447.590038 391.640772 0 123.618459 65.600067 233.697553 167.845753 305.451784l0 198.086497 196.072631-118.974695c27.13501 4.475941 55.053873 7.077186 83.671655 7.077186 247.181659 0 447.590038-175.343517 447.590038-391.640772C959.413006 239.461837 759.004627 64.089667 511.823991 64.089667L511.823991 64.089667 511.823991 64.089667zM288.028972 399.782196c-30.883381 0-55.948243 25.064862-55.948243 55.948243 0 30.883381 25.064862 55.948243 55.948243 55.948243s55.948243-25.064862 55.948243-55.948243C343.977215 424.848081 318.912353 399.782196 288.028972 399.782196L288.028972 399.782196 288.028972 399.782196zM511.823991 399.782196c-30.883381 0-55.948243 25.064862-55.948243 55.948243 0 30.883381 25.064862 55.948243 55.948243 55.948243 30.883381 0 55.948243-25.064862 55.948243-55.948243C567.772234 424.848081 542.707372 399.782196 511.823991 399.782196L511.823991 399.782196 511.823991 399.782196z" p-id="9218" fill="#000000"></path></svg>