<?xml version="1.0" standalone="no"?><!DOCTYPE svg PUBLIC "-//W3C//DTD SVG 1.1//EN" "http://www.w3.org/Graphics/SVG/1.1/DTD/svg11.dtd"><svg class="icon" width="200px" height="200.00px" viewBox="0 0 1024 1024" version="1.1" xmlns="http://www.w3.org/2000/svg"><path fill="#333333" d="M517.12 61.44c-248.837 0-450.56 201.723-450.56 450.56s201.723 450.56 450.56 450.56c248.842 0 450.56-201.723 450.56-450.56s-201.723-450.56-450.56-450.56zM716.836 414.761c36.767 0 66.57 29.804 66.57 66.565s-29.804 66.56-66.57 66.56-66.57-29.804-66.57-66.56c-0.005-36.762 29.804-66.565 66.57-66.565zM522.24 332.836c48.082 0 87.055 38.973 87.055 87.045s-38.973 87.045-87.055 87.045c-48.077 0-87.055-38.973-87.055-87.045s38.973-87.045 87.055-87.045zM327.644 414.761c36.767 0 66.57 29.804 66.57 66.565s-29.804 66.56-66.57 66.56c-36.767 0-66.57-29.804-66.57-66.56 0-36.762 29.804-66.565 66.57-66.565zM696.351 701.42h-348.221c0-6.907 0.445-13.706 1.229-20.398h-134.374c0-62.259 49.29-112.727 110.095-112.727 23.875 0 45.952 7.803 63.99 21.023 31.939-37.893 79.729-61.983 133.166-61.983 53.443 0 101.228 24.095 133.166 61.983 18.038-13.22 40.115-21.023 63.99-21.023 60.805 0 110.095 50.468 110.095 112.727h-134.374c0.788 6.692 1.239 13.491 1.239 20.398z" /></svg>