<?xml version="1.0" standalone="no"?><!DOCTYPE svg PUBLIC "-//W3C//DTD SVG 1.1//EN" "http://www.w3.org/Graphics/SVG/1.1/DTD/svg11.dtd"><svg class="icon" width="200px" height="200.00px" viewBox="0 0 1024 1024" version="1.1" xmlns="http://www.w3.org/2000/svg"><path fill="#333333" d="M951.351911 107.780749c-2.75781-2.182712-6.531763-2.568499-9.607822-0.943488L74.131883 550.510082c-3.229554 1.658779-5.132904 5.081739-4.852518 8.697079 0.318248 3.613294 2.759857 6.686283 6.217608 7.789407l290.425555 92.314499c3.055592 0.958838 6.355755 0.242524 8.698103-1.888L776.396227 295.431569 455.602014 675.1498c-1.940189 2.287089-2.602268 5.41329-1.746784 8.293897 0.853437 2.882654 3.090385 5.154393 5.967922 6.02625l322.267774 98.165764c0.832971 0.26299 1.713015 0.38374 2.583848 0.38374 1.532913 0 3.069919-0.402159 4.435009-1.171686 2.128477-1.219781 3.683902-3.263323 4.259-5.65786L954.491415 116.912733C955.317223 113.509217 954.089255 109.947088 951.351911 107.780749zM554.116725 759.970628l-89.069595-27.399023c-2.690272-0.873903-5.655813-0.348947-7.928576 1.342578-2.288113 1.697665-3.63376 4.367471-3.63376 7.196912l0 168.107719c0 3.983731 2.622734 7.475252 6.460132 8.591679 0.805342 0.228197 1.644453 0.349971 2.486634 0.349971 3.00238 0 5.881964-1.51961 7.544837-4.157693l89.059362-140.703579c1.503237-2.359744 1.818415-5.276167 0.841158-7.877411C558.916031 762.802116 556.784484 760.793366 554.116725 759.970628z" /></svg>